<?xml version="1.0" encoding="UTF-8" standalone="no"?>
<!-- Created with Inkscape (http://www.inkscape.org/) -->

<svg
   xmlns:dc="http://purl.org/dc/elements/1.1/"
   xmlns:cc="http://creativecommons.org/ns#"
   xmlns:rdf="http://www.w3.org/1999/02/22-rdf-syntax-ns#"
   xmlns:svg="http://www.w3.org/2000/svg"
   xmlns="http://www.w3.org/2000/svg"
   xmlns:sodipodi="http://sodipodi.sourceforge.net/DTD/sodipodi-0.dtd"
   xmlns:inkscape="http://www.inkscape.org/namespaces/inkscape"
   width="210mm"
   height="297mm"
   viewBox="0 0 210 297"
   version="1.1"
   id="svg8"
   inkscape:version="0.92.4 5da689c313, 2019-01-14"
   sodipodi:docname="bee_honey.svg">
  <defs
     id="defs2" />
  <sodipodi:namedview
     id="base"
     pagecolor="#ffffff"
     bordercolor="#666666"
     borderopacity="1.0"
     inkscape:pageopacity="0.0"
     inkscape:pageshadow="2"
     inkscape:zoom="0.49497475"
     inkscape:cx="-10701.968"
     inkscape:cy="1403.2939"
     inkscape:document-units="mm"
     inkscape:current-layer="layer1"
     showgrid="false"
     inkscape:window-width="1920"
     inkscape:window-height="1025"
     inkscape:window-x="0"
     inkscape:window-y="27"
     inkscape:window-maximized="1" />
  <metadata
     id="metadata5">
    <rdf:RDF>
      <cc:Work
         rdf:about="">
        <dc:format>image/svg+xml</dc:format>
        <dc:type
           rdf:resource="http://purl.org/dc/dcmitype/StillImage" />
        <dc:title />
      </cc:Work>
    </rdf:RDF>
  </metadata>
  <g
     inkscape:label="Camada 1"
     inkscape:groupmode="layer"
     id="layer1">
    <rect
       style="opacity:1;fill:#ffc111;fill-opacity:1;stroke:none;stroke-width:3.69809484;stroke-miterlimit:4;stroke-dasharray:none;stroke-opacity:0"
       id="rect815"
       width="338.66666"
       height="190.5"
       x="-2977.115"
       y="-234.5721"
       inkscape:export-xdpi="96"
       inkscape:export-ydpi="96" />
    <g
       id="g863"
       transform="matrix(0.64950227,0,0,0.64950227,-966.82405,69.829893)">
      <ellipse
         ry="11.425772"
         rx="8.4189901"
         cy="-74.62912"
         cx="-2912.8469"
         id="path817"
         style="opacity:1;fill:#fff411;fill-opacity:1;stroke:none;stroke-width:2.46499991;stroke-miterlimit:4;stroke-dasharray:none;stroke-opacity:0" />
      <path
         id="path819"
         transform="scale(0.26458333)"
         d="m -11036.043,-258.92578 a 31.819805,43.184019 0 0 0 26.857,20.04687 31.819805,43.184019 0 0 0 26.657,-19.67187 c -18.567,4.76797 -36.364,4.3662 -53.514,-0.375 z"
         style="fill:#000000;stroke:none;stroke-width:0.99999994px;stroke-linecap:butt;stroke-linejoin:miter;stroke-opacity:1"
         inkscape:connector-curvature="0" />
      <path
         id="path821"
         transform="scale(0.26458333)"
         d="m -11036.586,-303.92578 a 31.819805,43.184019 0 0 0 -4.42,21.86328 31.819805,43.184019 0 0 0 0.03,0.94141 c 20.779,4.98807 41.958,5.13827 63.574,0.17773 a 31.819805,43.184019 0 0 0 0.04,-1.11914 31.819805,43.184019 0 0 0 -4.369,-21.73242 c -18.284,2.99235 -36.568,2.9268 -54.852,-0.13086 z"
         style="fill:#000000;stroke:none;stroke-width:0.99999994px;stroke-linecap:butt;stroke-linejoin:miter;stroke-opacity:1"
         inkscape:connector-curvature="0" />
      <g
         transform="rotate(9.3905764,-2912.3957,-85.61354)"
         id="g835">
        <path
           style="fill:none;stroke:#000000;stroke-width:0.26458332px;stroke-linecap:butt;stroke-linejoin:miter;stroke-opacity:1"
           d="m -2910.5518,-84.788039 c -0.683,-5.320193 4.0376,-11.435557 8.3017,-6.456942 2.8768,6.763719 -5.2817,4.046466 -2.3139,1.66288"
           id="path829"
           inkscape:connector-curvature="0"
           sodipodi:nodetypes="ccc" />
        <circle
           style="opacity:1;fill:#000000;fill-opacity:1;stroke:none;stroke-width:2.46499991;stroke-miterlimit:4;stroke-dasharray:none;stroke-opacity:0"
           id="path831"
           cx="-2904.251"
           cy="-89.739006"
           r="0.73499119" />
      </g>
      <g
         id="g841"
         transform="matrix(-0.98659901,0.1631637,0.1631637,0.98659901,-5772.2817,474.04994)">
        <path
           sodipodi:nodetypes="ccc"
           inkscape:connector-curvature="0"
           id="path837"
           d="m -2910.5518,-84.788039 c -0.683,-5.320193 4.0376,-11.435557 8.3017,-6.456942 2.8768,6.763719 -5.2817,4.046466 -2.3139,1.66288"
           style="fill:none;stroke:#000000;stroke-width:0.26458332px;stroke-linecap:butt;stroke-linejoin:miter;stroke-opacity:1" />
        <circle
           r="0.73499119"
           cy="-89.739006"
           cx="-2904.251"
           id="circle839"
           style="opacity:1;fill:#000000;fill-opacity:1;stroke:none;stroke-width:2.46499991;stroke-miterlimit:4;stroke-dasharray:none;stroke-opacity:0" />
      </g>
      <g
         transform="translate(-0.02075195,-2.0788691)"
         id="g849">
        <ellipse
           style="opacity:1;fill:#bbf4ff;fill-opacity:1;stroke:none;stroke-width:2.15372849;stroke-miterlimit:4;stroke-dasharray:none;stroke-opacity:0"
           id="path843"
           cx="-2921.1416"
           cy="-73.605659"
           rx="8.0792408"
           ry="5.7641373" />
        <ellipse
           ry="5.7641373"
           rx="8.0792408"
           cy="-73.605659"
           cx="-2904.5107"
           id="ellipse845"
           style="opacity:1;fill:#bbf4ff;fill-opacity:1;stroke:none;stroke-width:2.15372849;stroke-miterlimit:4;stroke-dasharray:none;stroke-opacity:0" />
      </g>
    </g>
    <g
       id="g935"
       transform="matrix(1,0,0,0.87572137,82.051745,118.67557)">
      <path
         sodipodi:nodetypes="scscs"
         inkscape:connector-curvature="0"
         id="path865"
         d="m -2895.7512,-145.75186 c 0,6.44516 -4.3872,11.67 -9.7991,11.67001 -5.4119,-1e-5 -9.7991,-5.22485 -9.7991,-11.67001 0,-6.44517 0.1818,-11.67001 9.7991,-11.67002 9.6173,10e-6 9.7991,5.22485 9.7991,11.67002 z"
         style="opacity:1;fill:#000000;fill-opacity:1;stroke:none;stroke-width:2.25878477;stroke-miterlimit:4;stroke-dasharray:none;stroke-opacity:0" />
      <path
         inkscape:transform-center-y="3.8537085"
         inkscape:transform-center-x="0.391469"
         inkscape:connector-curvature="0"
         id="path868"
         d="m -2910.8024,-137.25657 -2.5191,4.29868 3.5561,3.60579 -5.5794,-3.13623 2.1159,-7.26434 z"
         style="fill:#000000;stroke:#000000;stroke-width:0.26458332px;stroke-linecap:butt;stroke-linejoin:miter;stroke-opacity:1" />
      <path
         inkscape:transform-center-y="1.674872"
         inkscape:transform-center-x="2.6531525"
         style="fill:#000000;stroke:#000000;stroke-width:0.26458332px;stroke-linecap:butt;stroke-linejoin:miter;stroke-opacity:1"
         d="m -2914.4641,-140.99703 -4.6549,-1.42424 -2.455,4.4842 1.4995,-6.39081 7.3189,0.26193 z"
         id="path870"
         inkscape:connector-curvature="0" />
      <path
         inkscape:connector-curvature="0"
         id="path872"
         d="m -2915.1991,-149.64011 -4.6549,1.42424 -2.455,-4.4842 1.4995,6.39081 7.3189,-0.26193 z"
         style="fill:#000000;stroke:#000000;stroke-width:0.26458332px;stroke-linecap:butt;stroke-linejoin:miter;stroke-opacity:1"
         inkscape:transform-center-x="2.6531525"
         inkscape:transform-center-y="-1.6748712" />
      <path
         inkscape:transform-center-y="-3.1709317"
         inkscape:transform-center-x="1.0321525"
         style="fill:#000000;stroke:#000000;stroke-width:0.26458332px;stroke-linecap:butt;stroke-linejoin:miter;stroke-opacity:1"
         d="m -2912.0068,-153.51306 -3.2627,-3.77108 2.7501,-4.29055 -4.7984,4.22618 3.4414,6.79859 z"
         id="path874"
         inkscape:connector-curvature="0" />
      <g
         transform="translate(0.90540562)"
         id="g903">
        <path
           inkscape:connector-curvature="0"
           style="opacity:1;fill:#ffffff;fill-opacity:1;stroke:none;stroke-width:9.316535;stroke-miterlimit:4;stroke-dasharray:none;stroke-opacity:0"
           d="m -10997.588,-532.625 a 5.4295696,10.859139 0 0 0 -2.469,9.10156 5.4295696,10.859139 0 0 0 5.43,10.85938 5.4295696,10.859139 0 0 0 5.43,-10.85938 5.4295696,10.859139 0 0 0 -0.01,-0.62109 c -2.091,-2.13601 -5.029,-5.13189 -8.379,-8.48047 z"
           transform="scale(0.26458333)"
           id="path884" />
        <ellipse
           ry="1.5367997"
           rx="0.76839983"
           cy="-137.19606"
           cx="-2908.9949"
           id="ellipse886"
           style="opacity:1;fill:#000000;fill-opacity:1;stroke:none;stroke-width:1.31848824;stroke-miterlimit:4;stroke-dasharray:none;stroke-opacity:0" />
        <path
           id="path895"
           d="m -2903.1329,-140.9237 a 1.4365736,2.8731472 0 0 1 0.6532,2.40812 1.4365736,2.8731472 0 0 1 -1.4367,2.87322 1.4365736,2.8731472 0 0 1 -1.4366,-2.87322 1.4365736,2.8731472 0 0 1 0,-0.16433 c 0.5533,-0.56515 1.3306,-1.35781 2.217,-2.24379 z"
           style="opacity:1;fill:#ffffff;fill-opacity:1;stroke:none;stroke-width:2.46499991;stroke-miterlimit:4;stroke-dasharray:none;stroke-opacity:0"
           inkscape:connector-curvature="0" />
        <ellipse
           style="opacity:1;fill:#000000;fill-opacity:1;stroke:none;stroke-width:1.31848824;stroke-miterlimit:4;stroke-dasharray:none;stroke-opacity:0"
           id="ellipse897"
           cx="2903.9165"
           cy="-137.19606"
           rx="0.76839983"
           ry="1.5367997"
           transform="scale(-1,1)" />
      </g>
      <path
         style="fill:#000000;stroke:#000000;stroke-width:0.12719513px;stroke-linecap:butt;stroke-linejoin:miter;stroke-opacity:1"
         d="m -2908.5881,-134.97399 -1.2184,1.89759 1.7023,1.97099 -2.6756,-1.88071 1.0305,-3.34969 z"
         id="path905"
         inkscape:connector-curvature="0"
         inkscape:transform-center-x="0.3185798"
         inkscape:transform-center-y="1.8700632" />
      <path
         style="fill:#000000;stroke:#000000;stroke-width:0.26458332px;stroke-linecap:butt;stroke-linejoin:miter;stroke-opacity:1"
         d="m -2899.5452,-136.70665 4.0638,2.28445 -1.5008,5.15311 3.4586,-5.90163 -5.0131,-5.08307 z"
         id="path909"
         inkscape:connector-curvature="0"
         inkscape:transform-center-x="-2.5747671"
         inkscape:transform-center-y="3.6706346" />
      <path
         inkscape:connector-curvature="0"
         id="path911"
         d="m -2897.2314,-141.29858 4.6549,1.42433 0.1626,5.28514 1.4997,-6.39075 -6.453,-3.95196 z"
         style="fill:#000000;stroke:#000000;stroke-width:0.26458332px;stroke-linecap:butt;stroke-linejoin:miter;stroke-opacity:1"
         inkscape:transform-center-x="-2.1527506"
         inkscape:transform-center-y="2.8763705" />
      <path
         inkscape:transform-center-y="-2.8763697"
         inkscape:transform-center-x="-2.1527506"
         style="fill:#000000;stroke:#000000;stroke-width:0.26458332px;stroke-linecap:butt;stroke-linejoin:miter;stroke-opacity:1"
         d="m -2896.5632,-149.33856 4.6549,-1.42433 0.1626,-5.28514 1.4997,6.39075 -6.453,3.95196 z"
         id="path913"
         inkscape:connector-curvature="0" />
      <path
         inkscape:connector-curvature="0"
         id="path915"
         d="m -2898.5793,-154.29636 4.4769,-1.40296 -0.5031,-5.28595 2.3051,6.3997 -5.9572,3.92284 z"
         style="fill:#000000;stroke:#000000;stroke-width:0.26458332px;stroke-linecap:butt;stroke-linejoin:miter;stroke-opacity:1"
         inkscape:transform-center-x="-2.2028006"
         inkscape:transform-center-y="-2.9622429" />
      <path
         inkscape:transform-center-y="1.5211889"
         inkscape:transform-center-x="1.1053721"
         inkscape:connector-curvature="0"
         id="path917"
         d="m -2902.9992,-135.39782 0.2243,2.33902 -2.3373,0.735 3.1407,-0.10108 0.5742,-3.48931 z"
         style="fill:#000000;stroke:#000000;stroke-width:0.12719513px;stroke-linecap:butt;stroke-linejoin:miter;stroke-opacity:1" />
    </g>
    <g
       id="g952"
       transform="matrix(0.20126729,0,0,0.20126729,-2192.8482,39.22791)">
      <circle
         inkscape:transform-center-y="-12.027129"
         r="9.0537548"
         cy="-113.82668"
         cx="-2966.9255"
         id="path937"
         style="opacity:1;fill:#ff3030;fill-opacity:1;stroke:none;stroke-width:2.46499991;stroke-miterlimit:4;stroke-dasharray:none;stroke-opacity:0" />
      <circle
         inkscape:transform-center-x="-12.0271"
         transform="rotate(90)"
         style="opacity:1;fill:#ff3030;fill-opacity:1;stroke:none;stroke-width:2.46499991;stroke-miterlimit:4;stroke-dasharray:none;stroke-opacity:0"
         id="circle939"
         cx="-101.79955"
         cy="2954.8984"
         r="9.0537548"
         inkscape:transform-center-y="1.1269532e-06" />
      <circle
         inkscape:transform-center-y="12.027101"
         r="9.0537548"
         cy="89.772453"
         cx="2966.9255"
         id="circle941"
         style="opacity:1;fill:#ff3030;fill-opacity:1;stroke:none;stroke-width:2.46499991;stroke-miterlimit:4;stroke-dasharray:none;stroke-opacity:0"
         transform="scale(-1)" />
      <circle
         inkscape:transform-center-x="12.0271"
         transform="rotate(-90)"
         style="opacity:1;fill:#ff3030;fill-opacity:1;stroke:none;stroke-width:2.46499991;stroke-miterlimit:4;stroke-dasharray:none;stroke-opacity:0"
         id="circle943"
         cx="101.79955"
         cy="-2978.9526"
         r="9.0537548"
         inkscape:transform-center-y="1.3906247e-06" />
      <circle
         inkscape:transform-center-x="-4.1800807e-05"
         style="opacity:1;fill:#ffff00;fill-opacity:1;stroke:none;stroke-width:1.90105164;stroke-miterlimit:4;stroke-dasharray:none;stroke-opacity:0"
         id="circle945"
         cx="-2966.9924"
         cy="-101.79955"
         r="6.9824162"
         inkscape:transform-center-y="-9.2755306" />
    </g>
    <g
       transform="matrix(1,0,0,0.87572137,45.766035,118.67557)"
       id="g1020">
      <path
         style="opacity:1;fill:#000000;fill-opacity:1;stroke:none;stroke-width:2.25878477;stroke-miterlimit:4;stroke-dasharray:none;stroke-opacity:0"
         d="m -2895.7512,-145.75186 c 0,6.44516 -4.3872,11.67 -9.7991,11.67001 -5.4119,-1e-5 -9.7991,-5.22485 -9.7991,-11.67001 0,-6.44517 0.1818,-11.67001 9.7991,-11.67002 9.6173,10e-6 9.7991,5.22485 9.7991,11.67002 z"
         id="path988"
         inkscape:connector-curvature="0"
         sodipodi:nodetypes="scscs" />
      <path
         style="fill:#000000;stroke:#000000;stroke-width:0.26458332px;stroke-linecap:butt;stroke-linejoin:miter;stroke-opacity:1"
         d="m -2911.2333,-136.91207 -3.4076,3.40768 2.6177,4.53394 -4.6784,-4.67834 3.6902,-6.39149 z"
         id="path990"
         inkscape:connector-curvature="0"
         inkscape:transform-center-x="1.803819"
         inkscape:transform-center-y="3.8948849" />
      <path
         inkscape:connector-curvature="0"
         id="path992"
         d="m -2914.4692,-141.08088 -4.8191,5e-5 -1.355,5.05698 -10e-5,-6.61622 7.1289,-1.9101 z"
         style="fill:#000000;stroke:#000000;stroke-width:0.26458332px;stroke-linecap:butt;stroke-linejoin:miter;stroke-opacity:1"
         inkscape:transform-center-x="2.0996025"
         inkscape:transform-center-y="2.4152638" />
      <path
         inkscape:transform-center-y="-2.415263"
         inkscape:transform-center-x="2.0996025"
         style="fill:#000000;stroke:#000000;stroke-width:0.26458332px;stroke-linecap:butt;stroke-linejoin:miter;stroke-opacity:1"
         d="m -2915.1374,-149.55626 -4.8191,-5e-5 -1.355,-5.05698 -1e-4,6.61622 7.1289,1.9101 z"
         id="path994"
         inkscape:connector-curvature="0" />
      <path
         inkscape:connector-curvature="0"
         id="path996"
         d="m -2912.305,-153.95633 -4.0063,-2.67828 1.684,-4.95716 -3.6771,5.50036 4.8651,5.54982 z"
         style="fill:#000000;stroke:#000000;stroke-width:0.26458332px;stroke-linecap:butt;stroke-linejoin:miter;stroke-opacity:1"
         inkscape:transform-center-x="1.6745525"
         inkscape:transform-center-y="-3.174763" />
      <g
         id="g1006"
         transform="translate(0.90540562)">
        <path
           id="path998"
           transform="scale(0.26458333)"
           d="m -10997.588,-532.625 a 5.4295696,10.859139 0 0 0 -2.469,9.10156 5.4295696,10.859139 0 0 0 5.43,10.85938 5.4295696,10.859139 0 0 0 5.43,-10.85938 5.4295696,10.859139 0 0 0 -0.01,-0.62109 c -2.091,-2.13601 -5.029,-5.13189 -8.379,-8.48047 z"
           style="opacity:1;fill:#ffffff;fill-opacity:1;stroke:none;stroke-width:9.316535;stroke-miterlimit:4;stroke-dasharray:none;stroke-opacity:0"
           inkscape:connector-curvature="0" />
        <ellipse
           style="opacity:1;fill:#000000;fill-opacity:1;stroke:none;stroke-width:1.31848824;stroke-miterlimit:4;stroke-dasharray:none;stroke-opacity:0"
           id="ellipse1000"
           cx="-2908.9949"
           cy="-137.19606"
           rx="0.76839983"
           ry="1.5367997" />
        <path
           inkscape:connector-curvature="0"
           style="opacity:1;fill:#ffffff;fill-opacity:1;stroke:none;stroke-width:2.46499991;stroke-miterlimit:4;stroke-dasharray:none;stroke-opacity:0"
           d="m -2903.1329,-140.9237 a 1.4365736,2.8731472 0 0 1 0.6532,2.40812 1.4365736,2.8731472 0 0 1 -1.4367,2.87322 1.4365736,2.8731472 0 0 1 -1.4366,-2.87322 1.4365736,2.8731472 0 0 1 0,-0.16433 c 0.5533,-0.56515 1.3306,-1.35781 2.217,-2.24379 z"
           id="path1002" />
        <ellipse
           transform="scale(-1,1)"
           ry="1.5367997"
           rx="0.76839983"
           cy="-137.19606"
           cx="2903.9165"
           id="ellipse1004"
           style="opacity:1;fill:#000000;fill-opacity:1;stroke:none;stroke-width:1.31848824;stroke-miterlimit:4;stroke-dasharray:none;stroke-opacity:0" />
      </g>
      <path
         inkscape:transform-center-y="1.75544"
         inkscape:transform-center-x="-0.5558702"
         inkscape:connector-curvature="0"
         id="path1008"
         d="m -2908.4064,-135.16226 -0.7468,2.19303 2.091,1.40072 -3.0107,-1.02585 0.2362,-3.54013 z"
         style="fill:#000000;stroke:#000000;stroke-width:0.12719513px;stroke-linecap:butt;stroke-linejoin:miter;stroke-opacity:1" />
      <path
         inkscape:transform-center-y="3.8948849"
         inkscape:transform-center-x="-1.8038171"
         inkscape:connector-curvature="0"
         id="path1010"
         d="m -2900.0395,-136.91207 3.4076,3.40768 -2.6177,4.53394 4.6784,-4.67834 -3.6902,-6.39149 z"
         style="fill:#000000;stroke:#000000;stroke-width:0.26458332px;stroke-linecap:butt;stroke-linejoin:miter;stroke-opacity:1" />
      <path
         inkscape:transform-center-y="2.4152638"
         inkscape:transform-center-x="-2.0996006"
         style="fill:#000000;stroke:#000000;stroke-width:0.26458332px;stroke-linecap:butt;stroke-linejoin:miter;stroke-opacity:1"
         d="m -2896.8036,-141.08088 4.8191,5e-5 1.355,5.05698 1e-4,-6.61622 -7.1289,-1.9101 z"
         id="path1012"
         inkscape:connector-curvature="0" />
      <path
         inkscape:connector-curvature="0"
         id="path1014"
         d="m -2896.1354,-149.55626 4.8191,-5e-5 1.355,-5.05698 10e-5,6.61622 -7.1289,1.9101 z"
         style="fill:#000000;stroke:#000000;stroke-width:0.26458332px;stroke-linecap:butt;stroke-linejoin:miter;stroke-opacity:1"
         inkscape:transform-center-x="-2.0996006"
         inkscape:transform-center-y="-2.415263" />
      <path
         inkscape:transform-center-y="-3.174763"
         inkscape:transform-center-x="-1.6745506"
         style="fill:#000000;stroke:#000000;stroke-width:0.26458332px;stroke-linecap:butt;stroke-linejoin:miter;stroke-opacity:1"
         d="m -2898.9678,-153.95633 4.0063,-2.67828 -1.684,-4.95716 3.6771,5.50036 -4.8651,5.54982 z"
         id="path1016"
         inkscape:connector-curvature="0" />
      <path
         style="fill:#000000;stroke:#000000;stroke-width:0.12719513px;stroke-linecap:butt;stroke-linejoin:miter;stroke-opacity:1"
         d="m -2902.8664,-135.16226 0.7468,2.19303 -2.091,1.40072 3.0107,-1.02585 -0.2362,-3.54013 z"
         id="path1018"
         inkscape:connector-curvature="0"
         inkscape:transform-center-x="0.55587206"
         inkscape:transform-center-y="1.75544" />
    </g>
    <g
       transform="matrix(-1,0,0,0.87572137,-5694.9517,118.48658)"
       id="g1054">
      <path
         style="opacity:1;fill:#000000;fill-opacity:1;stroke:none;stroke-width:2.25878477;stroke-miterlimit:4;stroke-dasharray:none;stroke-opacity:0"
         d="m -2895.7512,-145.75186 c 0,6.44516 -4.3872,11.67 -9.7991,11.67001 -5.4119,-1e-5 -9.7991,-5.22485 -9.7991,-11.67001 0,-6.44517 0.1818,-11.67001 9.7991,-11.67002 9.6173,10e-6 9.7991,5.22485 9.7991,11.67002 z"
         id="path1022"
         inkscape:connector-curvature="0"
         sodipodi:nodetypes="scscs" />
      <path
         style="fill:#000000;stroke:#000000;stroke-width:0.26458332px;stroke-linecap:butt;stroke-linejoin:miter;stroke-opacity:1"
         d="m -2910.8024,-137.25657 -2.5191,4.29868 3.5561,3.60579 -5.5794,-3.13623 2.1159,-7.26434 z"
         id="path1024"
         inkscape:connector-curvature="0"
         inkscape:transform-center-x="0.391469"
         inkscape:transform-center-y="3.8537085" />
      <path
         inkscape:connector-curvature="0"
         id="path1026"
         d="m -2914.4641,-140.99703 -4.6549,-1.42424 -2.455,4.4842 1.4995,-6.39081 7.3189,0.26193 z"
         style="fill:#000000;stroke:#000000;stroke-width:0.26458332px;stroke-linecap:butt;stroke-linejoin:miter;stroke-opacity:1"
         inkscape:transform-center-x="2.6531525"
         inkscape:transform-center-y="1.674872" />
      <path
         inkscape:transform-center-y="-1.6748712"
         inkscape:transform-center-x="2.6531525"
         style="fill:#000000;stroke:#000000;stroke-width:0.26458332px;stroke-linecap:butt;stroke-linejoin:miter;stroke-opacity:1"
         d="m -2915.1991,-149.64011 -4.6549,1.42424 -2.455,-4.4842 1.4995,6.39081 7.3189,-0.26193 z"
         id="path1028"
         inkscape:connector-curvature="0" />
      <path
         inkscape:connector-curvature="0"
         id="path1030"
         d="m -2912.0068,-153.51306 -3.2627,-3.77108 2.7501,-4.29055 -4.7984,4.22618 3.4414,6.79859 z"
         style="fill:#000000;stroke:#000000;stroke-width:0.26458332px;stroke-linecap:butt;stroke-linejoin:miter;stroke-opacity:1"
         inkscape:transform-center-x="1.0321525"
         inkscape:transform-center-y="-3.1709317" />
      <g
         id="g1040"
         transform="translate(0.90540562)">
        <path
           id="path1032"
           transform="scale(0.26458333)"
           d="m -10997.588,-532.625 a 5.4295696,10.859139 0 0 0 -2.469,9.10156 5.4295696,10.859139 0 0 0 5.43,10.85938 5.4295696,10.859139 0 0 0 5.43,-10.85938 5.4295696,10.859139 0 0 0 -0.01,-0.62109 c -2.091,-2.13601 -5.029,-5.13189 -8.379,-8.48047 z"
           style="opacity:1;fill:#ffffff;fill-opacity:1;stroke:none;stroke-width:9.316535;stroke-miterlimit:4;stroke-dasharray:none;stroke-opacity:0"
           inkscape:connector-curvature="0" />
        <ellipse
           style="opacity:1;fill:#000000;fill-opacity:1;stroke:none;stroke-width:1.31848824;stroke-miterlimit:4;stroke-dasharray:none;stroke-opacity:0"
           id="ellipse1034"
           cx="-2908.9949"
           cy="-137.19606"
           rx="0.76839983"
           ry="1.5367997" />
        <path
           inkscape:connector-curvature="0"
           style="opacity:1;fill:#ffffff;fill-opacity:1;stroke:none;stroke-width:2.46499991;stroke-miterlimit:4;stroke-dasharray:none;stroke-opacity:0"
           d="m -2903.1329,-140.9237 a 1.4365736,2.8731472 0 0 1 0.6532,2.40812 1.4365736,2.8731472 0 0 1 -1.4367,2.87322 1.4365736,2.8731472 0 0 1 -1.4366,-2.87322 1.4365736,2.8731472 0 0 1 0,-0.16433 c 0.5533,-0.56515 1.3306,-1.35781 2.217,-2.24379 z"
           id="path1036" />
        <ellipse
           transform="scale(-1,1)"
           ry="1.5367997"
           rx="0.76839983"
           cy="-137.19606"
           cx="2903.9165"
           id="ellipse1038"
           style="opacity:1;fill:#000000;fill-opacity:1;stroke:none;stroke-width:1.31848824;stroke-miterlimit:4;stroke-dasharray:none;stroke-opacity:0" />
      </g>
      <path
         inkscape:transform-center-y="1.8700632"
         inkscape:transform-center-x="0.3185798"
         inkscape:connector-curvature="0"
         id="path1042"
         d="m -2908.5881,-134.97399 -1.2184,1.89759 1.7023,1.97099 -2.6756,-1.88071 1.0305,-3.34969 z"
         style="fill:#000000;stroke:#000000;stroke-width:0.12719513px;stroke-linecap:butt;stroke-linejoin:miter;stroke-opacity:1" />
      <path
         inkscape:transform-center-y="3.6706346"
         inkscape:transform-center-x="-2.5747671"
         inkscape:connector-curvature="0"
         id="path1044"
         d="m -2899.5452,-136.70665 4.0638,2.28445 -1.5008,5.15311 3.4586,-5.90163 -5.0131,-5.08307 z"
         style="fill:#000000;stroke:#000000;stroke-width:0.26458332px;stroke-linecap:butt;stroke-linejoin:miter;stroke-opacity:1" />
      <path
         inkscape:transform-center-y="2.8763705"
         inkscape:transform-center-x="-2.1527506"
         style="fill:#000000;stroke:#000000;stroke-width:0.26458332px;stroke-linecap:butt;stroke-linejoin:miter;stroke-opacity:1"
         d="m -2897.2314,-141.29858 4.6549,1.42433 0.1626,5.28514 1.4997,-6.39075 -6.453,-3.95196 z"
         id="path1046"
         inkscape:connector-curvature="0" />
      <path
         inkscape:connector-curvature="0"
         id="path1048"
         d="m -2896.5632,-149.33856 4.6549,-1.42433 0.1626,-5.28514 1.4997,6.39075 -6.453,3.95196 z"
         style="fill:#000000;stroke:#000000;stroke-width:0.26458332px;stroke-linecap:butt;stroke-linejoin:miter;stroke-opacity:1"
         inkscape:transform-center-x="-2.1527506"
         inkscape:transform-center-y="-2.8763697" />
      <path
         inkscape:transform-center-y="-2.9622429"
         inkscape:transform-center-x="-2.2028006"
         style="fill:#000000;stroke:#000000;stroke-width:0.26458332px;stroke-linecap:butt;stroke-linejoin:miter;stroke-opacity:1"
         d="m -2898.5793,-154.29636 4.4769,-1.40296 -0.5031,-5.28595 2.3051,6.3997 -5.9572,3.92284 z"
         id="path1050"
         inkscape:connector-curvature="0" />
      <path
         style="fill:#000000;stroke:#000000;stroke-width:0.12719513px;stroke-linecap:butt;stroke-linejoin:miter;stroke-opacity:1"
         d="m -2902.9992,-135.39782 0.2243,2.33902 -2.3373,0.735 3.1407,-0.10108 0.5742,-3.48931 z"
         id="path1052"
         inkscape:connector-curvature="0"
         inkscape:transform-center-x="1.1053721"
         inkscape:transform-center-y="1.5211889" />
    </g>
    <g
       transform="matrix(0.64950227,0,0,0.64950227,-943.86195,69.829893)"
       id="g1080">
      <ellipse
         style="opacity:1;fill:#fff411;fill-opacity:1;stroke:none;stroke-width:2.46499991;stroke-miterlimit:4;stroke-dasharray:none;stroke-opacity:0"
         id="ellipse1056"
         cx="-2912.8469"
         cy="-74.62912"
         rx="8.4189901"
         ry="11.425772" />
      <path
         inkscape:connector-curvature="0"
         style="fill:#000000;stroke:none;stroke-width:0.99999994px;stroke-linecap:butt;stroke-linejoin:miter;stroke-opacity:1"
         d="m -11036.043,-258.92578 a 31.819805,43.184019 0 0 0 26.857,20.04687 31.819805,43.184019 0 0 0 26.657,-19.67187 c -18.567,4.76797 -36.364,4.3662 -53.514,-0.375 z"
         transform="scale(0.26458333)"
         id="path1058" />
      <path
         inkscape:connector-curvature="0"
         style="fill:#000000;stroke:none;stroke-width:0.99999994px;stroke-linecap:butt;stroke-linejoin:miter;stroke-opacity:1"
         d="m -11036.586,-303.92578 a 31.819805,43.184019 0 0 0 -4.42,21.86328 31.819805,43.184019 0 0 0 0.03,0.94141 c 20.779,4.98807 41.958,5.13827 63.574,0.17773 a 31.819805,43.184019 0 0 0 0.04,-1.11914 31.819805,43.184019 0 0 0 -4.369,-21.73242 c -18.284,2.99235 -36.568,2.9268 -54.852,-0.13086 z"
         transform="scale(0.26458333)"
         id="path1060" />
      <g
         id="g1066"
         transform="rotate(9.3905764,-2912.3957,-85.61354)">
        <path
           sodipodi:nodetypes="ccc"
           inkscape:connector-curvature="0"
           id="path1062"
           d="m -2910.5518,-84.788039 c -0.683,-5.320193 4.0376,-11.435557 8.3017,-6.456942 2.8768,6.763719 -5.2817,4.046466 -2.3139,1.66288"
           style="fill:none;stroke:#000000;stroke-width:0.26458332px;stroke-linecap:butt;stroke-linejoin:miter;stroke-opacity:1" />
        <circle
           r="0.73499119"
           cy="-89.739006"
           cx="-2904.251"
           id="circle1064"
           style="opacity:1;fill:#000000;fill-opacity:1;stroke:none;stroke-width:2.46499991;stroke-miterlimit:4;stroke-dasharray:none;stroke-opacity:0" />
      </g>
      <g
         transform="matrix(-0.98659901,0.1631637,0.1631637,0.98659901,-5772.2817,474.04994)"
         id="g1072">
        <path
           style="fill:none;stroke:#000000;stroke-width:0.26458332px;stroke-linecap:butt;stroke-linejoin:miter;stroke-opacity:1"
           d="m -2910.5518,-84.788039 c -0.683,-5.320193 4.0376,-11.435557 8.3017,-6.456942 2.8768,6.763719 -5.2817,4.046466 -2.3139,1.66288"
           id="path1068"
           inkscape:connector-curvature="0"
           sodipodi:nodetypes="ccc" />
        <circle
           style="opacity:1;fill:#000000;fill-opacity:1;stroke:none;stroke-width:2.46499991;stroke-miterlimit:4;stroke-dasharray:none;stroke-opacity:0"
           id="circle1070"
           cx="-2904.251"
           cy="-89.739006"
           r="0.73499119" />
      </g>
      <g
         id="g1078"
         transform="translate(-0.02075195,-2.0788691)">
        <ellipse
           ry="5.7641373"
           rx="8.0792408"
           cy="682.87262"
           cx="-2840.9302"
           id="ellipse1074"
           style="opacity:1;fill:#bbf4ff;fill-opacity:1;stroke:none;stroke-width:2.15372849;stroke-miterlimit:4;stroke-dasharray:none;stroke-opacity:0"
           inkscape:transform-center-x="5.0342243"
           transform="rotate(15)"
           inkscape:transform-center-y="-1.348936" />
        <ellipse
           inkscape:transform-center-x="-5.0340118"
           style="opacity:1;fill:#bbf4ff;fill-opacity:1;stroke:none;stroke-width:2.15372849;stroke-miterlimit:4;stroke-dasharray:none;stroke-opacity:0"
           id="ellipse1108"
           cx="2786.7808"
           cy="-825.06787"
           rx="8.0792408"
           ry="5.7641373"
           transform="matrix(-0.96592583,0.25881905,0.25881905,0.96592583,0,0)"
           inkscape:transform-center-y="-1.3488599" />
      </g>
    </g>
    <g
       id="g1134"
       transform="matrix(0.64950227,0,0,0.64950227,-921.93935,69.829893)">
      <ellipse
         ry="11.425772"
         rx="8.4189901"
         cy="-74.62912"
         cx="-2912.8469"
         id="ellipse1110"
         style="opacity:1;fill:#fff411;fill-opacity:1;stroke:none;stroke-width:2.46499991;stroke-miterlimit:4;stroke-dasharray:none;stroke-opacity:0" />
      <path
         id="path1112"
         transform="scale(0.26458333)"
         d="m -11036.043,-258.92578 a 31.819805,43.184019 0 0 0 26.857,20.04687 31.819805,43.184019 0 0 0 26.657,-19.67187 c -18.567,4.76797 -36.364,4.3662 -53.514,-0.375 z"
         style="fill:#000000;stroke:none;stroke-width:0.99999994px;stroke-linecap:butt;stroke-linejoin:miter;stroke-opacity:1"
         inkscape:connector-curvature="0" />
      <path
         id="path1114"
         transform="scale(0.26458333)"
         d="m -11036.586,-303.92578 a 31.819805,43.184019 0 0 0 -4.42,21.86328 31.819805,43.184019 0 0 0 0.03,0.94141 c 20.779,4.98807 41.958,5.13827 63.574,0.17773 a 31.819805,43.184019 0 0 0 0.04,-1.11914 31.819805,43.184019 0 0 0 -4.369,-21.73242 c -18.284,2.99235 -36.568,2.9268 -54.852,-0.13086 z"
         style="fill:#000000;stroke:none;stroke-width:0.99999994px;stroke-linecap:butt;stroke-linejoin:miter;stroke-opacity:1"
         inkscape:connector-curvature="0" />
      <g
         transform="rotate(9.3905764,-2912.3957,-85.61354)"
         id="g1120">
        <path
           style="fill:none;stroke:#000000;stroke-width:0.26458332px;stroke-linecap:butt;stroke-linejoin:miter;stroke-opacity:1"
           d="m -2910.5518,-84.788039 c -0.683,-5.320193 4.0376,-11.435557 8.3017,-6.456942 2.8768,6.763719 -5.2817,4.046466 -2.3139,1.66288"
           id="path1116"
           inkscape:connector-curvature="0"
           sodipodi:nodetypes="ccc" />
        <circle
           style="opacity:1;fill:#000000;fill-opacity:1;stroke:none;stroke-width:2.46499991;stroke-miterlimit:4;stroke-dasharray:none;stroke-opacity:0"
           id="circle1118"
           cx="-2904.251"
           cy="-89.739006"
           r="0.73499119" />
      </g>
      <g
         id="g1126"
         transform="matrix(-0.98659901,0.1631637,0.1631637,0.98659901,-5772.2817,474.04994)">
        <path
           sodipodi:nodetypes="ccc"
           inkscape:connector-curvature="0"
           id="path1122"
           d="m -2910.5518,-84.788039 c -0.683,-5.320193 4.0376,-11.435557 8.3017,-6.456942 2.8768,6.763719 -5.2817,4.046466 -2.3139,1.66288"
           style="fill:none;stroke:#000000;stroke-width:0.26458332px;stroke-linecap:butt;stroke-linejoin:miter;stroke-opacity:1" />
        <circle
           r="0.73499119"
           cy="-89.739006"
           cx="-2904.251"
           id="circle1124"
           style="opacity:1;fill:#000000;fill-opacity:1;stroke:none;stroke-width:2.46499991;stroke-miterlimit:4;stroke-dasharray:none;stroke-opacity:0" />
      </g>
      <g
         transform="translate(-0.02075195,-2.0788691)"
         id="g1132">
        <ellipse
           inkscape:transform-center-y="1.3489162"
           transform="rotate(-15)"
           inkscape:transform-center-x="5.0342422"
           style="opacity:1;fill:#bbf4ff;fill-opacity:1;stroke:none;stroke-width:2.15372849;stroke-miterlimit:4;stroke-dasharray:none;stroke-opacity:0"
           id="ellipse1128"
           cx="-2802.8291"
           cy="-825.06787"
           rx="8.0792408"
           ry="5.7641373" />
        <ellipse
           inkscape:transform-center-y="1.3488581"
           transform="matrix(-0.96592583,-0.25881904,-0.25881904,0.96592583,0,0)"
           ry="5.7641373"
           rx="8.0792408"
           cy="682.87262"
           cx="2824.8818"
           id="ellipse1130"
           style="opacity:1;fill:#bbf4ff;fill-opacity:1;stroke:none;stroke-width:2.15372849;stroke-miterlimit:4;stroke-dasharray:none;stroke-opacity:0"
           inkscape:transform-center-x="-5.0340345" />
      </g>
    </g>
  </g>
</svg>
